<svg width="18" height="18" viewBox="0 0 18 18" fill="none" xmlns="http://www.w3.org/2000/svg">
<path d="M2.5769 8.21895C2.36992 8.42619 2.25366 8.70711 2.25366 9C2.25366 9.2929 2.36992 9.57382 2.5769 9.78106L6.74448 13.9508C6.95182 14.1582 7.23304 14.2747 7.52627 14.2747C7.8195 14.2747 8.10072 14.1582 8.30806 13.9508C8.5154 13.7435 8.63189 13.4623 8.63189 13.1691C8.63189 12.8758 8.5154 12.5946 8.30806 12.3873L6.0268 10.1053L14.5263 10.1053C14.8194 10.1053 15.1005 9.98882 15.3078 9.78154C15.5151 9.57427 15.6315 9.29314 15.6315 9C15.6315 8.70687 15.5151 8.42574 15.3078 8.21846C15.1005 8.01119 14.8194 7.89474 14.5263 7.89474L6.02679 7.89474L8.30806 5.61348C8.41072 5.51081 8.49216 5.38893 8.54773 5.25479C8.60329 5.12065 8.63189 4.97688 8.63189 4.83169C8.63189 4.6865 8.60329 4.54273 8.54773 4.40859C8.49216 4.27445 8.41072 4.15256 8.30806 4.0499C8.20539 3.94723 8.08351 3.86579 7.94937 3.81023C7.81523 3.75467 7.67146 3.72607 7.52627 3.72607C7.38108 3.72607 7.23731 3.75467 7.10317 3.81023C6.96903 3.86579 6.84715 3.94723 6.74448 4.0499L2.5769 8.21895Z" fill="#333333"/>
</svg>
